<svg xmlns="http://www.w3.org/2000/svg" xmlns:xlink="http://www.w3.org/1999/xlink" width="1080" zoomAndPan="magnify" viewBox="0 0 810 809.999993" height="1080" preserveAspectRatio="xMidYMid meet" version="1.0"><defs><g/></defs><rect x="-81" width="972" fill="#ffffff" y="-80.999999" height="971.999992" fill-opacity="1"/><rect x="-81" width="972" fill="#31458c" y="-80.999999" height="971.999992" fill-opacity="1"/><g fill="#ffffff" fill-opacity="1"><g transform="translate(158.703701, 595.450364)"><g><path d="M 481.21875 -253.4375 C 478.476562 -271.90625 472.832031 -292.425781 464.28125 -315 C 455.726562 -337.570312 442.726562 -358.773438 425.28125 -378.609375 C 407.84375 -398.441406 384.757812 -415.195312 356.03125 -428.875 C 327.300781 -442.5625 291.050781 -449.40625 247.28125 -449.40625 C 208.289062 -449.40625 174.257812 -442.734375 145.1875 -429.390625 C 116.113281 -416.054688 91.828125 -398.613281 72.328125 -377.0625 C 52.835938 -355.519531 38.300781 -330.894531 28.71875 -303.1875 C 19.144531 -275.488281 14.359375 -247.273438 14.359375 -218.546875 C 14.359375 -189.816406 19.144531 -161.597656 28.71875 -133.890625 C 38.300781 -106.191406 52.835938 -81.566406 72.328125 -60.015625 C 91.828125 -38.472656 116.113281 -21.03125 145.1875 -7.6875 C 174.257812 5.644531 208.289062 12.3125 247.28125 12.3125 C 274.632812 12.3125 299.769531 8.71875 322.6875 1.53125 C 345.601562 -5.644531 366.125 -15.390625 384.25 -27.703125 C 402.375 -40.015625 417.765625 -54.207031 430.421875 -70.28125 C 443.078125 -86.351562 452.828125 -103.285156 459.671875 -121.078125 C 461.722656 -125.859375 462.75 -130.300781 462.75 -134.40625 C 462.75 -141.25 460.351562 -144.671875 455.5625 -144.671875 C 451.457031 -144.671875 448.378906 -143.300781 446.328125 -140.5625 C 444.273438 -137.832031 441.539062 -133.390625 438.125 -127.234375 C 430.59375 -112.179688 421.179688 -97.644531 409.890625 -83.625 C 398.609375 -69.601562 385.101562 -57.117188 369.375 -46.171875 C 353.644531 -35.222656 335.6875 -26.5 315.5 -20 C 295.320312 -13.507812 272.582031 -10.265625 247.28125 -10.265625 C 237.019531 -10.265625 227.785156 -11.628906 219.578125 -14.359375 C 211.367188 -17.097656 204.351562 -22.226562 198.53125 -29.75 C 192.71875 -37.28125 188.269531 -47.710938 185.1875 -61.046875 C 182.113281 -74.390625 180.578125 -91.320312 180.578125 -111.84375 L 180.578125 -253.4375 Z M 180.578125 -348.859375 C 180.578125 -403.578125 202.46875 -430.9375 246.25 -430.9375 C 288.65625 -430.9375 309.859375 -403.578125 309.859375 -348.859375 L 309.859375 -272.921875 L 180.578125 -272.921875 Z M 180.578125 -348.859375 "/></g></g></g></svg>